<svg version="1.1" id="Layer_1" xmlns="http://www.w3.org/2000/svg" xmlns:xlink="http://www.w3.org/1999/xlink" x="0px" y="0px"
	 width="100%" viewBox="0 0 940 788" enable-background="new 0 0 940 788" xml:space="preserve">
<path fill="#000000" opacity="1.000000" stroke="none" 
	d="
M564.000000,789.000000 
	C377.500061,789.000000 191.500107,788.986816 5.500220,789.093628 
	C1.751323,789.095825 0.905172,788.249756 0.906656,784.500122 
	C1.009445,524.833618 1.009428,265.166992 0.906762,5.500438 
	C0.905280,1.752230 1.749482,0.905549 5.499627,0.906771 
	C315.832855,1.007916 626.166077,1.007894 936.499329,0.906968 
	C940.246765,0.905750 941.094971,1.748478 941.093445,5.499353 
	C940.990601,265.165894 940.990601,524.832520 941.093140,784.499023 
	C941.094604,788.245972 940.252686,789.097900 936.500854,789.094482 
	C812.500610,788.980225 688.500305,789.000000 564.000000,789.000000 
z"/>
<path fill="#DF0000" opacity="1.000000" stroke="none" 
	d="
M424.343811,8.879543 
	C447.116760,26.950657 469.640625,44.777779 492.112244,62.670486 
	C498.029633,67.382118 504.166626,71.908676 509.543365,77.191353 
	C524.880737,92.260414 524.525696,114.125893 510.976105,130.586884 
	C501.165680,142.505234 491.658264,154.673813 482.064362,166.769379 
	C472.479248,178.853882 463.065948,191.077148 453.320892,203.030502 
	C451.036621,205.832443 449.521820,210.991348 445.565979,210.409897 
	C442.520996,209.962326 440.053650,205.994827 437.201508,203.755463 
	C424.085114,193.456909 410.909760,183.233459 397.789673,172.939636 
	C394.939758,170.703644 392.343292,168.132919 389.417267,166.009689 
	C387.363800,164.519638 387.352295,163.306381 388.918365,161.556778 
	C390.783844,159.472687 392.524750,157.277145 394.322113,155.132004 
	C395.026978,154.290817 395.294434,153.311249 394.556580,152.461319 
	C393.959656,151.773651 393.090302,152.078476 392.255646,152.331467 
	C372.302979,158.379684 353.155457,166.242218 334.898773,176.422653 
	C321.102142,184.116028 307.977386,192.685715 295.745728,202.652344 
	C284.091980,212.148132 272.958557,222.114883 262.865051,233.371964 
	C251.074692,246.521530 240.414261,260.446747 231.196167,275.418610 
	C215.127121,301.517548 203.760269,329.521362 196.787064,359.498779 
	C190.776489,385.337830 189.077774,411.392456 190.148224,437.672272 
	C190.755035,452.569031 192.845154,467.408600 196.089447,482.019379 
	C201.907593,508.221680 211.075272,533.201721 223.983490,556.737244 
	C233.385010,573.878967 244.247467,590.027710 257.172882,604.795898 
	C264.791473,613.500671 272.781891,621.799500 281.212433,629.687439 
	C296.019531,643.541382 312.356079,655.328796 329.915222,665.449097 
	C347.719025,675.710205 366.271210,684.330994 385.916595,690.401733 
	C401.864166,695.329773 418.089722,698.941650 434.703156,701.158020 
	C453.146881,703.618530 471.656799,703.829102 490.046631,702.764465 
	C520.291687,701.013550 549.467773,693.822327 577.566711,682.208679 
	C601.048218,672.503357 622.853394,659.925232 642.842285,644.410217 
	C658.364990,632.361694 672.487183,618.755066 685.180176,603.566711 
	C700.539612,585.187683 713.650940,565.474487 723.958313,543.927307 
	C734.799805,521.263245 742.273438,497.507446 747.157349,472.803741 
	C751.799988,449.320068 751.730225,425.646881 750.724487,402.051514 
	C749.875061,382.126465 745.849426,362.501953 740.211121,343.213379 
	C732.234863,315.926544 720.188049,290.600159 704.835999,266.839783 
	C698.345093,256.793945 690.851990,247.405151 682.994507,238.300568 
	C676.131775,230.348648 668.726990,222.962646 661.143250,215.787003 
	C644.991272,200.504242 627.119995,187.451279 607.518738,176.887192 
	C603.535461,174.740372 602.695801,173.324554 605.336121,168.778030 
	C613.060791,155.476547 619.811340,141.611359 627.024658,128.010071 
	C630.398560,121.648285 634.067139,115.441330 637.373047,109.045784 
	C638.439270,106.983047 639.434509,107.041710 641.099121,108.019684 
	C660.047913,119.152321 678.534363,130.917908 695.572937,144.920990 
	C706.716492,154.079208 717.518616,163.558609 727.457703,173.992310 
	C746.334351,193.808258 763.031433,215.306335 776.979492,238.892761 
	C791.295654,263.101624 802.908936,288.499512 811.204773,315.420288 
	C817.143494,334.692108 821.426697,354.267029 824.121826,374.259430 
	C825.823364,386.881073 826.053711,399.587097 827.316162,412.182556 
	C828.504944,424.042725 827.361145,435.682770 826.788513,447.341614 
	C825.960693,464.197235 823.351074,480.929016 819.793213,497.473694 
	C814.934448,520.067200 807.848328,541.970276 798.837646,563.208984 
	C791.529846,580.434082 782.612671,596.873230 772.657654,612.732483 
	C755.622559,639.870850 735.011658,664.073242 711.564087,685.794739 
	C694.195557,701.884705 675.074829,715.736206 654.835999,728.099060 
	C628.386963,744.255310 600.212097,756.380676 570.553711,765.104736 
	C553.763977,770.043518 536.639893,773.443604 519.315002,776.153259 
	C495.217438,779.922119 471.007355,779.432007 446.859222,778.768555 
	C426.873260,778.219360 407.127808,774.501221 387.620300,769.864624 
	C358.008179,762.826416 329.739838,752.146973 302.924194,737.869812 
	C283.384308,727.466370 264.975525,715.220032 247.676926,701.297791 
	C235.260315,691.304871 223.671249,680.474731 212.583252,669.072205 
	C194.284103,650.253906 178.572998,629.439331 165.013168,606.991882 
	C150.135330,582.362549 138.352371,556.336243 129.902618,528.811218 
	C124.569954,511.440125 120.805260,493.764465 117.811539,475.818878 
	C113.334381,448.981018 113.120140,421.972961 114.305580,395.054047 
	C115.334694,371.684753 120.044296,348.659790 126.384262,326.007355 
	C132.449249,304.337372 140.441864,283.430511 150.423019,263.360748 
	C161.975525,240.131317 175.968765,218.346115 192.345749,198.154770 
	C202.472443,185.669479 213.117813,173.624039 224.899673,162.698929 
	C247.370300,141.862350 271.836182,123.713348 298.809479,109.014526 
	C324.504578,95.012238 351.351990,83.996529 379.773499,76.879967 
	C380.981262,76.577538 383.017914,76.640350 383.278656,75.184402 
	C383.535004,73.752975 382.336426,72.172592 380.979462,71.599823 
	C375.253052,69.182709 377.060669,66.130219 379.852570,62.625553 
	C393.863983,45.037083 407.797058,27.386187 421.797760,9.789094 
	C422.301300,9.156199 422.782104,7.935801 424.343811,8.879543 
z"/>
<path fill="#DF0000" opacity="1.000000" stroke="none" 
	d="
M575.592163,488.275391 
	C587.267639,492.788757 598.467468,497.422333 609.192566,503.082886 
	C620.055115,508.815979 630.542908,515.200623 640.603943,522.262085 
	C643.008972,523.950073 643.546753,525.432495 641.381958,528.295776 
	C627.946228,546.066711 614.652405,563.951050 601.693970,582.071289 
	C599.348877,585.350586 597.640137,585.330872 595.018372,583.456848 
	C577.242737,570.751404 557.720337,561.793213 536.723511,555.868103 
	C523.309509,552.082825 509.761261,549.332397 495.860046,547.869568 
	C481.073853,546.313660 466.250854,546.460693 451.558990,547.253845 
	C430.265289,548.403381 409.535370,553.265808 389.463135,560.791504 
	C373.572205,566.749573 358.655823,574.410461 345.009521,584.495422 
	C343.026001,585.961304 342.097107,584.991516 340.982300,583.487122 
	C327.522369,565.322876 313.979797,547.219238 300.662292,528.951355 
	C299.533447,527.402893 296.066589,525.735535 300.556702,522.519165 
	C323.000854,506.441742 347.374176,494.504852 373.554993,485.927063 
	C389.911346,480.568085 406.640747,476.979431 423.527252,473.939178 
	C423.958130,473.861572 424.358551,473.614807 425.586548,473.117615 
	C396.357208,460.351410 374.383148,440.570404 361.112518,412.098602 
	C347.858185,383.661774 345.156219,354.033051 354.614594,323.973694 
	C370.376709,273.880554 413.955933,242.584427 459.870331,239.063354 
	C521.951538,234.302490 566.785828,272.556213 583.027283,314.441132 
	C595.092407,345.555573 595.298340,376.403809 582.352539,407.342987 
	C569.388245,438.326508 546.529114,459.290588 516.356445,473.392914 
	C536.648926,476.476562 556.007080,482.032684 575.592163,488.275391 
z"/>
<path fill="#000000" opacity="1.000000" stroke="none" 
	d="
M515.006104,358.505432 
	C516.600830,375.302307 509.749237,387.820526 495.641724,397.729706 
	C485.954346,404.534119 474.918762,406.358643 463.599213,404.833649 
	C452.358307,403.319244 442.763458,397.701874 435.544250,388.881256 
	C428.709198,380.530029 425.079865,370.488800 425.181061,359.827484 
	C425.316986,345.503784 431.041779,333.037354 442.568970,324.301300 
	C459.647766,311.357880 478.307465,310.963074 495.895569,322.310089 
	C508.156311,330.220123 516.279968,342.065002 515.006104,358.505432 
z"/>
</svg>