<svg xmlns="http://www.w3.org/2000/svg" xmlns:xlink="http://www.w3.org/1999/xlink" width="940" zoomAndPan="magnify" viewBox="0 0 705 591.000005" height="788" preserveAspectRatio="xMidYMid meet" version="1.0"><defs><clipPath id="1a14ffcc45"><path d="M 85.390625 48 L 619.238281 48 L 619.238281 583 L 85.390625 583 Z M 85.390625 48 " clip-rule="nonzero"/></clipPath></defs><path fill="#df0000" d="M 352.507812 234.367188 C 333.53125 234.367188 318.144531 249.753906 318.144531 268.734375 C 318.144531 287.714844 333.53125 303.097656 352.507812 303.097656 C 371.488281 303.097656 386.875 287.714844 386.875 268.734375 C 386.875 249.753906 371.488281 234.367188 352.507812 234.367188 Z M 261.914062 268.734375 C 261.914062 218.699219 302.476562 178.136719 352.507812 178.136719 C 402.542969 178.136719 443.109375 218.699219 443.109375 268.734375 C 443.109375 318.765625 402.542969 359.332031 352.507812 359.332031 C 302.476562 359.332031 261.914062 318.765625 261.914062 268.734375 Z M 261.914062 268.734375 " fill-opacity="1" fill-rule="evenodd"/><path fill="#df0000" d="M 352.5 408.066406 C 314.375 408.066406 280.707031 419.660156 256.730469 437.359375 L 223.335938 392.117188 C 257.734375 366.722656 303.324219 351.832031 352.5 351.832031 C 401.671875 351.832031 447.261719 366.722656 481.664062 392.117188 L 448.265625 437.359375 C 424.289062 419.660156 390.625 408.066406 352.5 408.066406 Z M 352.5 408.066406 " fill-opacity="1" fill-rule="evenodd"/><g clip-path="url(#1a14ffcc45)"><path fill="#df0000" d="M 352.496094 104.597656 C 236.035156 104.597656 141.621094 199.007812 141.621094 315.46875 C 141.621094 431.929688 236.035156 526.339844 352.496094 526.339844 C 468.957031 526.339844 563.367188 431.929688 563.367188 315.46875 C 563.367188 234.957031 518.253906 164.9375 451.796875 129.390625 L 478.320312 79.804688 C 562.335938 124.75 619.597656 213.398438 619.597656 315.46875 C 619.597656 462.988281 500.011719 582.574219 352.496094 582.574219 C 204.976562 582.574219 85.390625 462.988281 85.390625 315.46875 C 85.390625 167.953125 204.976562 48.363281 352.496094 48.363281 Z M 352.496094 104.597656 " fill-opacity="1" fill-rule="evenodd"/></g><path fill="#df0000" d="M 322.285156 81.890625 L 282.019531 49.925781 L 316.984375 5.886719 L 379.265625 55.332031 C 391.429688 64.984375 393.464844 82.671875 383.808594 94.832031 L 334.363281 157.117188 L 290.320312 122.152344 Z M 322.285156 81.890625 " fill-opacity="1" fill-rule="evenodd"/></svg>